<?xml version="1.0" encoding="UTF-8"?>
<svg xmlns="http://www.w3.org/2000/svg" width="400" height="400" viewBox="0 0 400 400">
  <defs>
    <style>
      .cls-1 {
        fill: #231f20;
      }

      .cls-2 {
        isolation: isolate;
      }

      .cls-3 {
        fill: #507cbd;
        mix-blend-mode: multiply;
        opacity: .57;
      }

      .cls-4 {
        fill: #c5dbf1;
      }
    </style>
  </defs>
  <g class="cls-2">
    <g id="Layer_1" data-name="Layer 1">
      <g>
        <path class="cls-4" d="M369.68,162.69c0,1.88-55.83,13.78-308,6.25-43.4-1.3-14.04-7.32-6.31-8.7,16.77-3,13.08-2.41,27.98-16.5,23.85-22.54,26.7-26.65,26.7-26.65,0,0,12.04-19.6,19.41-10.12s9,7.84,14.22,3.27c5.23-4.57,14.43-17.7,18.86-21.84,2.31-2.16,12.2-4.34,15.71-12.21,6.99-15.65,9.1-24.32,10.2-24.21s1.65-.86,4.84,11.74c.4,1.59,10.32,14.07,14.17,10.86,3.51-2.93,8.97,13.47,13.03,19.4,2.2,3.21,1.69-3.56,3.87-1.56,5.53,5.06,21.48,28.52,35.76,38.29,14.23,9.74,12.93,6.02,20.01-.96,13.81-13.61,12.85-19.19,19.05-12.65,3.16,3.32,21.26,23.19,38.36,33.93,16.52,10.37,32.12,9.59,32.12,11.68Z"/>
        <path d="M368.14,165.4h0c-4.47.03-6.43-.16-10.87-.63-12.6-1.34-17.57-4.81-27.49-11.72l-2.55-1.77c-6.94-4.81-13.98-10.63-22.15-18.34l-.7-.66c-2.93-2.77-5.97-5.64-9.16-8.25-1.92-1.58-3.99-1.59-5.99-.05-1.85,1.44-3.73,3.11-5.77,5.12-1.19,1.17-2.37,2.35-3.55,3.53-3.01,3-6.11,6.1-9.28,9.06-.03-.03-.06-.06-.1-.09-.26-.24-.58-.54-1.05-.74-7.78-3.32-15.01-8.22-21.48-14.54-7-6.84-13.23-14.58-18.53-21.29-.5-.63-1.02-1.26-1.54-1.88-1.58-1.89-3.07-3.68-4.08-5.81,0-.01-.02-.02-.02-.03-.03-.06-.08-.11-.12-.17-.05-.07-.1-.14-.16-.19,0,0-.01-.02-.02-.02-.04-.03-.08-.04-.13-.06-.08-.05-.16-.1-.24-.12-.07-.02-.13-.02-.2-.03-.08,0-.15-.02-.23-.02-.08,0-.16.03-.23.06-.05.02-.11.02-.16.04-.01,0-.02.02-.03.02-.07.03-.12.09-.18.13-.06.05-.13.09-.18.15,0,0-.02.01-.02.02-.12.15-.28.4-.46.67-.15.24-.32.5-.48.7-.3.4-.6.64-.82.65-.31-.02-.65-.24-1.06-.7-.6-.66-1.22-1.37-1.58-2.08-1.26-2.44-2.48-4.9-3.71-7.37-.54-1.09-1.08-2.18-1.62-3.26-.22-.44-.43-.89-.64-1.34-.91-1.96-1.95-4.19-4.07-5.94-.25-.21-.58-.29-.9-.25-.32.05-.61.23-.79.5-.71,1.06-1.18.99-1.39.97-.56-.07-1.27-.55-1.96-1.01l-.37-.25c-1.88-1.24-3.48-2.81-5.17-4.48l-.13-.13c-.63-.62-1.17-1.33-1.75-2.09-.96-1.26-1.96-2.56-3.43-3.52-.13-.08-.27-.14-.41-.16-.47-2.51-.8-4.13-.97-4.68-.25-.77-.45-1.73-.67-2.75-.4-1.89-.82-3.85-1.63-5.34-.02-.04-.06-.07-.09-.1-.03-.04-.04-.08-.07-.12-.02-.02-.05-.03-.07-.05-.06-.05-.12-.1-.19-.14-.06-.04-.12-.07-.19-.1-.07-.03-.14-.04-.21-.05-.07-.01-.14-.02-.22-.02-.07,0-.14.02-.21.03-.08.02-.15.04-.22.07-.03.01-.06.01-.09.03-.04.02-.07.06-.1.09-.04.03-.08.04-.12.07-1.69,1.54-2.38,4.04-2.85,5.69-1.45,5.18-2.95,10.54-5.55,15.51-2.12,4.06-5.2,7.4-9.7,10.51-.22.15-.44.32-.67.49-.38.29-.74.56-1.09.75-7.7,4.18-12.3,11.11-16.75,17.82-.83,1.25-1.66,2.5-2.51,3.73-2.91,4.22-5.59,8.37-8.71,13.24-2.82-3.04-5.74-6.14-8.95-8.91-3.14-2.7-6.76-4.6-11.95-.25-2.29,1.91-4.11,4.28-5.64,6.35-3.39,4.59-7.21,9.36-12.1,13.15-7.85,6.08-14.24,13.43-19.45,19.83-3.41,4.18-7.36,7.12-12.08,8.99-4.91,1.94-10.31,3.13-16.05,3.52-1.28.09-4.28.05-6.92.03-1.27-.01-2.49-.03-3.5-.03h0c-.63,0-1.15.51-1.15,1.14,0,.63.51,1.15,1.15,1.15,1,0,2.22.01,3.48.03,1.42.02,2.86.03,4.11.03s2.31-.02,2.99-.06c5.98-.41,11.61-1.65,16.74-3.68,5.09-2.01,9.34-5.18,13.01-9.67,5.13-6.29,11.41-13.53,19.08-19.46,5.13-3.97,9.22-9.1,12.55-13.6,1.52-2.05,3.17-4.2,5.26-5.96,3.73-3.13,5.95-2.38,8.98.23,3.38,2.91,6.47,6.25,9.46,9.48,1.35,1.46,2.71,2.92,4.09,4.35,1.49,1.54,3.41,3.55,5.3,5.66-5.73,9.45-13.97,16.78-24.53,21.78-6.34,2.99-12.76,4.58-19.08,4.72-.63.01-1.13.54-1.12,1.17.01.63.52,1.1,1.17,1.12,6.64-.15,13.37-1.81,20.01-4.94,10.67-5.04,19.07-12.37,25.02-21.8,1.79,1.47,3.64,3.1,5.3,4.57,1.4,1.24,2.61,2.3,3.52,3.05,9.55,7.77,20.94,13.6,33.83,17.35,9.59,2.79,13.1,3.71,22.95,4.65,1.11.11,2.53.27,4.09.45,4.21.48,9.36,1.07,12.72,1.07.28,0,.55,0,.8-.01.58-.02,1.24-.11,2.02-.21,1.08-.14,2.29-.3,3.49-.3.17,0,.33-.04.48-.11.04-.02.07-.05.11-.07.11-.07.2-.14.28-.24.02-.02.04-.03.05-.05.02-.03.03-.07.05-.11.04-.07.07-.14.1-.22.02-.07.04-.15.05-.23,0-.04.02-.08.02-.12,0-.03-.01-.06-.02-.09,0-.08-.02-.15-.05-.23-.02-.07-.04-.14-.07-.2-.03-.06-.07-.11-.11-.17-.05-.07-.1-.12-.16-.18-.02-.02-.03-.04-.06-.06-1.57-1.15-4.16-3.09-4.55-3.43-3.65-3.18-6.99-5.91-10.22-8.57-4.26-3.49-8.28-6.79-12.87-10.95-7.03-6.36-14.34-13.38-20.2-21.57-5.17-7.22-8.95-15.75-11.57-26.07-.39-1.52-1.32-3.28-2.27-4.27-.29-.31-.73-.43-1.14-.31-.76.22-1.07.38-1.56.73-6.36,4.55-10.28,10.69-11.63,18.25-1.14,6.36-3.63,11.63-7.61,16.11l-.22.24c-2.03,2.28-4.09,4.64-5.76,7.23-1.78-1.97-3.55-3.82-4.94-5.26-1.06-1.1-2.1-2.22-3.14-3.34,3.24-5.06,6-9.33,8.99-13.66.86-1.24,1.69-2.5,2.53-3.76,4.49-6.77,8.74-13.17,15.94-17.07.5-.27.95-.61,1.38-.93.2-.15.39-.3.59-.43,4.81-3.33,8.12-6.93,10.42-11.34,2.71-5.18,4.24-10.66,5.72-15.95.25-.89.58-2.08,1.1-3.1.27.91.49,1.91.7,2.91.23,1.07.44,2.09.72,2.97.23.72.98,4.8,1.65,8.39.68,3.67,1.38,7.46,1.83,9.47,1.07,4.77,2.73,9.68,5.24,15.46,2.98,6.86,7.87,12.47,14.53,16.68,3.36,2.12,6.68,4.67,9.88,7.58,2.15,1.95,3.72,4.31,5.38,6.81l.34.51c.22.33.58.51.95.51.22,0,.44-.06.63-.19.53-.35.67-1.06.32-1.59l-.34-.51c-1.66-2.5-3.39-5.09-5.74-7.23-3.3-3-6.73-5.63-10.2-7.82-6.36-4.02-10.83-9.14-13.65-15.66-2.45-5.65-4.07-10.43-5.11-15.05-.44-1.97-1.14-5.74-1.81-9.38-.04-.22-.08-.41-.12-.62.48.53.93,1.11,1.39,1.71.6.79,1.22,1.6,1.97,2.33l.13.13c1.7,1.67,3.45,3.4,5.53,4.76l.36.24c.87.58,1.85,1.24,2.94,1.37,1.01.13,1.92-.19,2.73-.94,1.19,1.28,1.89,2.78,2.62,4.36.22.47.44.94.67,1.4.54,1.08,1.08,2.17,1.62,3.25,1.23,2.47,2.46,4.95,3.72,7.4.49.95,1.22,1.79,1.92,2.56.87.96,1.79,1.45,2.73,1.45.04,0,.09,0,.13,0,.9-.04,1.72-.53,2.44-1.43,1.02,1.67,2.26,3.16,3.47,4.62.51.61,1.01,1.22,1.5,1.83,5.34,6.77,11.63,14.58,18.72,21.51,6.67,6.52,14.13,11.57,22.18,15.01.1.04.24.17.39.31.02.02.06.05.08.07-1.04,1.16-2.07,2.33-3.09,3.51-3.24,3.74-6.59,7.61-10.42,10.86-.81.68-3.44,2.94-3.44,2.94-.35.3-.49.78-.34,1.22s.54.75,1,.79c.5.04.95.09,1.39.14.69.07,1.35.14,2.06.17,9.01.39,16.12-.85,22.36-3.92,6.57-3.24,13.58-3.8,22.72-1.83.99.21,2.02.55,3.02.88,1.61.52,3.27,1.06,4.9,1.17,3.11.19,5.02,1.19,7.03,2.25,1.24.65,2.53,1.33,4.08,1.78.94.27,1.98.34,2.85.34.61,0,1.14-.03,1.47-.06h.24c.63-.04,1.12-.58,1.09-1.21-.03-.63-.56-1.15-1.2-1.09l-.29.02c-.7.05-2.33.15-3.53-.2-1.33-.39-2.46-.98-3.66-1.61-.19-.1-.38-.2-.57-.3-.03-.02-.06-.05-.09-.07-1.49-.66-3.54-2.15-4.89-3.13-.61-.44-1.1-.8-1.39-.97-1.11-.68-2.26-1.28-3.38-1.86-.65-.34-1.31-.68-1.95-1.04-7.21-3.99-14.04-6.31-20.88-7.09-4.18-.48-7.78-1.36-10.95-2.67,2.83-2.68,5.62-5.43,8.31-8.12,1.18-1.18,2.36-2.35,3.54-3.52,1.97-1.95,3.79-3.56,5.56-4.94,1.14-.88,2.04-.88,3.13,0,3.13,2.57,6.14,5.4,9.04,8.15l.7.66c8.25,7.79,15.38,13.68,22.42,18.55l2.54,1.77c9.91,6.91,15.37,10.71,28.55,12.12,4.12.44,6.27.65,10.27.65.28,0,.56,0,.86,0,.63,0,1.14-.52,1.14-1.15,0-.63-.52-1.14-1.15-1.14ZM155.5,127.33l.22-.24c4.27-4.81,6.93-10.44,8.15-17.22,1.26-7.06,4.77-12.55,10.71-16.79.07-.05.13-.09.18-.13.48.69.99,1.69,1.24,2.67,2.69,10.6,6.59,19.38,11.92,26.84,5.98,8.36,13.4,15.48,20.53,21.93,4.63,4.19,8.67,7.51,12.95,11.02,3.22,2.64,6.54,5.37,10.17,8.52.28.24,1.22.96,2.24,1.72-.21.03-.44.05-.64.08-.72.09-1.34.17-1.8.19-3.11.11-8.7-.53-13.19-1.04-1.58-.18-3.01-.34-4.13-.45-9.65-.92-13.09-1.83-22.53-4.57-12.78-3.71-23.58-9.25-33.03-16.93-.88-.71-2.07-1.77-3.45-2.99-1.75-1.55-3.71-3.27-5.61-4.82,1.65-2.77,3.9-5.32,6.09-7.78ZM303.94,154.15c.66.37,1.33.72,2,1.07,1.06.55,2.16,1.13,3.19,1.76-1.28-.12-2.65-.56-4.1-1.03-1.06-.34-2.15-.7-3.25-.94-9.55-2.06-17.24-1.42-24.21,2.01-5.88,2.89-12.64,4.07-21.25,3.69-.23-.01-.45-.02-.68-.04.56-.48,1.09-.93,1.39-1.18,3.97-3.36,7.38-7.3,10.68-11.11,1.24-1.43,2.48-2.86,3.75-4.27,0,0,0,0,0,0,3.59,1.61,7.67,2.67,12.45,3.22,6.54.75,13.09,2.98,20.03,6.82Z"/>
        <path class="cls-3" d="M205.81,140.41s-18.75-18-21.65-26.22c-4.18-11.84-12.96-20.39-7.84-32.31s10.6-24.98,10.6-24.98c0,0,3.89,14.95,10.89,40.01,4.67,16.73,35.2,26.47,30.04,33.16-9.91,12.84-22.04,10.33-22.04,10.33Z"/>
        <path class="cls-3" d="M147.97,134.69s12.05-10.35,16.85-31.8c1.4-6.24,8.65-12.02,8.65-12.02,0,0,5.92,4.51-5.79,17.34-7.12,7.81,14.75,23.63,5.85,37.19-8.9,13.56-25.56-10.71-25.56-10.71Z"/>
        <path class="cls-3" d="M73.95,162.52s50.99-57.1,47.54-48.95c-7.51,17.77,3.17,21.25-5.73,34.81s-41.82,14.13-41.82,14.13Z"/>
        <path class="cls-3" d="M252.86,161.54l38.34-37.75s5.91-1.77-2.34,8.4c-11.25,13.85,5.21,4.14,1.02,15.05-.37.95,22.69,8.95,21.97,10.25-1,1.81-19.18-6.16-27.17-2.22-13.51,6.66-31.81,6.27-31.81,6.27Z"/>
      </g>
      <g>
        <path class="cls-1" d="M50.59,192.38c6.86,0,11.97,2.29,16.34,6.25.34.34.4.87.07,1.21l-1.08,1.14c-.4.4-.74.34-1.14-.07-3.83-3.43-8.67-5.51-14.19-5.51-11.76,0-20.98,9.61-20.98,21.25s9.21,21.11,20.98,21.11c5.78,0,10.15-2.29,14.19-5.65.4-.34.81-.34,1.08-.13l1.14,1.14c.34.27.34.81,0,1.14-4.57,4.44-10.42,6.52-16.4,6.52-13.45,0-24.34-10.62-24.34-24.14s10.89-24.27,24.34-24.27Z"/>
        <path class="cls-1" d="M79.23,239.3l20.71-46.79c.13-.27.47-.47.81-.47h.2c.34,0,.67.07.87.47l20.51,46.79c.13.4.13.81-.6.81h-1.75c-.47,0-.81-.34-.94-.6l-5.45-12.37h-25.68l-5.38,12.37c-.13.27-.47.6-.94.6h-1.88c-.47,0-.67-.27-.47-.81ZM112.44,224.51l-11.5-27.09h-.13l-11.7,27.09h23.33Z"/>
        <path class="cls-1" d="M135.1,233.86l.61-.81c.47-.54.94-.74,1.48-.27.67.61,5.65,5.18,12.44,5.18,6.12,0,11.3-4.1,11.3-9.01,0-5.98-4.91-8.67-13.04-11.43-7.8-2.76-12.98-5.51-12.98-13.24,0-5.04,4.03-11.9,14.52-11.9,6.66,0,11.56,3.43,11.56,3.43.27.2.74.67.27,1.41-.2.27-.4.61-.54.87-.4.54-.81.74-1.48.34-.2-.13-4.71-3.16-9.88-3.16-8.27,0-11.36,5.11-11.36,8.94,0,5.71,4.37,8.2,11.16,10.42,9.21,3.16,15.06,6.39,15.06,14.19,0,6.72-6.92,11.97-14.66,11.97s-13.38-4.71-14.25-5.51c-.4-.34-.74-.67-.2-1.41Z"/>
        <path class="cls-1" d="M203.48,192.38c6.86,0,11.97,2.29,16.34,6.25.34.34.4.87.07,1.21l-1.08,1.14c-.4.4-.74.34-1.14-.07-3.83-3.43-8.67-5.51-14.19-5.51-11.76,0-20.98,9.61-20.98,21.25s9.21,21.11,20.98,21.11c5.78,0,10.15-2.29,14.19-5.65.4-.34.81-.34,1.08-.13l1.14,1.14c.34.27.34.81,0,1.14-4.57,4.44-10.42,6.52-16.4,6.52-13.45,0-24.34-10.62-24.34-24.14s10.89-24.27,24.34-24.27Z"/>
        <path class="cls-1" d="M232.13,239.3l20.71-46.79c.14-.27.47-.47.81-.47h.2c.34,0,.67.07.87.47l20.51,46.79c.13.4.13.81-.6.81h-1.75c-.47,0-.81-.34-.94-.6l-5.45-12.37h-25.68l-5.38,12.37c-.14.27-.47.6-.94.6h-1.88c-.47,0-.67-.27-.47-.81ZM265.34,224.51l-11.5-27.09h-.13l-11.7,27.09h23.33Z"/>
        <path class="cls-1" d="M290.82,193.92c0-.47.4-.87.81-.87h14.25c13.04,0,23.67,10.56,23.67,23.46s-10.62,23.6-23.67,23.6h-14.25c-.4,0-.81-.4-.81-.87v-45.31ZM305.34,237.22c11.77,0,20.84-8.94,20.84-20.71s-9.08-20.57-20.84-20.57h-11.36v41.28h11.36Z"/>
        <path class="cls-1" d="M348.51,193.92c0-.47.4-.87.87-.87h26.96c.47,0,.87.4.87.87v1.14c0,.47-.4.87-.87.87h-24.61v18.56h21.31c.47,0,.87.4.87.87v1.14c0,.47-.4.87-.87.87h-21.31v19.9h24.61c.47,0,.87.4.87.87v1.08c0,.47-.4.87-.87.87h-26.96c-.47,0-.87-.4-.87-.87v-45.31Z"/>
      </g>
      <g>
        <path class="cls-1" d="M32.59,262.1c-.11-.23-.03-.37.23-.37h.77c.17,0,.28.11.31.2l7.66,17.61h.06l7.74-17.61c.03-.09.14-.2.31-.2h.74c.26,0,.37.17.26.4l-8.71,19.48c-.06.14-.17.25-.34.25h-.14c-.17,0-.28-.17-.31-.25l-8.57-19.51Z"/>
        <path class="cls-1" d="M58.43,262.1c0-.2.17-.37.37-.37h11.37c.2,0,.37.17.37.37v.48c0,.2-.17.37-.37.37h-10.38v7.83h8.99c.2,0,.37.17.37.37v.48c0,.2-.17.37-.37.37h-8.99v8.4h10.38c.2,0,.37.17.37.37v.45c0,.2-.17.37-.37.37h-11.37c-.2,0-.37-.17-.37-.37v-19.12Z"/>
        <path class="cls-1" d="M79.94,261.82c0-.23.2-.37.43-.37h.48l13.61,17.73h.03v-17.07c0-.2.17-.37.37-.37h.57c.2,0,.37.17.37.37v19.4c0,.25-.23.37-.45.37h-.37s-.26-.08-13.73-17.9h-.03v17.24c0,.2-.17.37-.37.37h-.54c-.2,0-.37-.17-.37-.37v-19.4Z"/>
        <path class="cls-1" d="M109.36,262.95h-5.42c-.28,0-.37-.17-.37-.43v-.43c0-.23.17-.37.37-.37h12.2c.23,0,.37.17.37.37v.48c0,.2-.14.37-.37.37h-5.45v18.26c0,.2-.17.37-.45.37h-.51c-.2,0-.37-.17-.37-.37v-18.26Z"/>
        <path class="cls-1" d="M124.05,262.1c0-.2.17-.37.37-.37h.6c.2,0,.37.17.37.37v12.11c0,3.66,2.3,6.35,6.07,6.35s6.13-2.67,6.13-6.32v-12.14c0-.23.11-.37.4-.37h.57c.2,0,.37.17.37.37v12.25c0,4.34-2.95,7.52-7.46,7.52s-7.4-3.18-7.4-7.52v-12.25Z"/>
        <path class="cls-1" d="M149.25,262.1c0-.2.14-.37.37-.37h7.03c3.46,0,6.32,2.61,6.32,6.07,0,2.86-1.99,5.16-4.68,5.93l4.14,7.35c.14.23.08.51-.2.51h-.88c-.2,0-.31-.08-.4-.25l-4.11-7.43c-.37.03-.68.03-1.05.03h-5.22v7.29c0,.2-.17.37-.45.37h-.51c-.2,0-.37-.17-.37-.37v-19.12ZM156.59,272.74c2.72,0,5.02-2.13,5.02-4.93s-2.3-4.77-5.05-4.77h-5.96v9.7h5.98Z"/>
        <path class="cls-1" d="M172.23,262.1c0-.2.17-.37.37-.37h11.37c.2,0,.37.17.37.37v.48c0,.2-.17.37-.37.37h-10.38v7.83h8.99c.2,0,.37.17.37.37v.48c0,.2-.17.37-.37.37h-8.99v8.4h10.38c.2,0,.37.17.37.37v.45c0,.2-.17.37-.37.37h-11.37c-.2,0-.37-.17-.37-.37v-19.12Z"/>
        <path class="cls-1" d="M204.43,262.1c0-.2.17-.37.37-.37h6.1c3.52,0,6.41,2.86,6.41,6.35s-2.89,6.44-6.38,6.44h-5.16v6.69c0,.2-.17.37-.45.37h-.51c-.2,0-.37-.17-.37-.37v-19.12ZM210.84,273.22c2.78,0,5.13-2.3,5.13-5.16s-2.35-4.99-5.16-4.99h-5.05v10.15h5.08Z"/>
        <path class="cls-1" d="M222.22,281.25l8.74-19.74c.06-.11.2-.2.34-.2h.08c.14,0,.28.03.37.2l8.65,19.74c.06.17.06.34-.25.34h-.74c-.2,0-.34-.14-.4-.25l-2.3-5.22h-10.83l-2.27,5.22c-.06.11-.2.25-.4.25h-.79c-.2,0-.28-.11-.2-.34ZM236.23,275.01l-4.85-11.43h-.06l-4.93,11.43h9.84Z"/>
        <path class="cls-1" d="M248.12,262.1c0-.2.14-.37.37-.37h7.03c3.46,0,6.32,2.61,6.32,6.07,0,2.86-1.99,5.16-4.68,5.93l4.14,7.35c.14.23.09.51-.2.51h-.88c-.2,0-.31-.08-.4-.25l-4.11-7.43c-.37.03-.68.03-1.05.03h-5.22v7.29c0,.2-.17.37-.45.37h-.51c-.2,0-.37-.17-.37-.37v-19.12ZM255.46,272.74c2.72,0,5.02-2.13,5.02-4.93s-2.3-4.77-5.05-4.77h-5.96v9.7h5.98Z"/>
        <path class="cls-1" d="M274.02,262.95h-5.42c-.28,0-.37-.17-.37-.43v-.43c0-.23.17-.37.37-.37h12.2c.23,0,.37.17.37.37v.48c0,.2-.14.37-.37.37h-5.45v18.26c0,.2-.17.37-.45.37h-.51c-.2,0-.37-.17-.37-.37v-18.26Z"/>
        <path class="cls-1" d="M288.94,261.82c0-.23.2-.37.43-.37h.48l13.61,17.73h.03v-17.07c0-.2.17-.37.37-.37h.57c.2,0,.37.17.37.37v19.4c0,.25-.23.37-.45.37h-.37s-.25-.08-13.73-17.9h-.03v17.24c0,.2-.17.37-.37.37h-.54c-.2,0-.37-.17-.37-.37v-19.4Z"/>
        <path class="cls-1" d="M315.35,262.1c0-.2.17-.37.37-.37h11.37c.2,0,.37.17.37.37v.48c0,.2-.17.37-.37.37h-10.38v7.83h8.99c.2,0,.37.17.37.37v.48c0,.2-.17.37-.37.37h-8.99v8.4h10.38c.2,0,.37.17.37.37v.45c0,.2-.17.37-.37.37h-11.37c-.2,0-.37-.17-.37-.37v-19.12Z"/>
        <path class="cls-1" d="M336.86,262.1c0-.2.14-.37.37-.37h7.03c3.46,0,6.32,2.61,6.32,6.07,0,2.86-1.99,5.16-4.68,5.93l4.14,7.35c.14.23.09.51-.2.51h-.88c-.2,0-.31-.08-.4-.25l-4.11-7.43c-.37.03-.68.03-1.05.03h-5.22v7.29c0,.2-.17.37-.45.37h-.51c-.2,0-.37-.17-.37-.37v-19.12ZM344.2,272.74c2.72,0,5.02-2.13,5.02-4.93s-2.3-4.77-5.05-4.77h-5.96v9.7h5.98Z"/>
        <path class="cls-1" d="M358.65,278.95l.25-.34c.2-.23.4-.31.62-.11.28.25,2.38,2.18,5.25,2.18,2.58,0,4.77-1.73,4.77-3.8,0-2.52-2.07-3.66-5.5-4.82-3.29-1.16-5.47-2.33-5.47-5.59,0-2.13,1.7-5.02,6.13-5.02,2.81,0,4.88,1.45,4.88,1.45.11.09.31.28.11.6-.09.11-.17.26-.23.37-.17.23-.34.31-.62.14-.08-.06-1.98-1.33-4.17-1.33-3.49,0-4.79,2.16-4.79,3.77,0,2.41,1.84,3.46,4.71,4.4,3.89,1.33,6.35,2.69,6.35,5.98,0,2.84-2.92,5.05-6.18,5.05s-5.64-1.98-6.01-2.33c-.17-.14-.31-.28-.08-.6Z"/>
      </g>
    </g>
  </g>
</svg>