<?xml version="1.0" encoding="UTF-8" standalone="yes"?>
<svg width="400" height="400" viewBox="0 0 400 400" version="1.2" baseProfile="tiny-ps" xmlns="http://www.w3.org/2000/svg">
  <title>bimi-svg-tiny-12-ps</title>
  <circle cx="200" cy="200" r="200" fill="#fff"/>
  <g transform="translate(12,59)scale(.95)">
    <g fill="#231f20">
      <path d="M57.65 163c5.94 0 10.36 1.98 14.14 5.41.29.29.35.76.06 1.05l-.93.99c-.35.35-.64.29-.99-.06-3.32-2.97-7.51-4.77-12.28-4.77-10.18 0-18.16 8.32-18.16 18.39s7.97 18.27 18.16 18.27c5 0 8.79-1.98 12.28-4.89.35-.29.7-.29.93-.12l.99.99c.29.23.29.7 0 .99-3.96 3.84-9.02 5.65-14.2 5.65-11.64 0-21.07-9.2-21.07-20.89s9.43-21.01 21.07-21.01Z"/>
      <path d="M82.45 203.62l17.92-40.5c.12-.23.41-.41.7-.41h.17c.29 0 .58.06.76.41l17.75 40.5c.12.35.12.7-.52.7h-1.51c-.41 0-.7-.29-.81-.52l-4.71-10.71h-22.23l-4.66 10.71c-.12.23-.41.52-.81.52h-1.63c-.41 0-.58-.23-.41-.7Zm28.75-12.8l-9.95-23.45h-.12l-10.13 23.45h20.19Z"/>
      <path d="M130.82 198.91l.52-.7c.41-.47.81-.64 1.28-.23.58.52 4.89 4.48 10.77 4.48 5.3 0 9.78-3.55 9.78-7.8 0-5.18-4.25-7.51-11.29-9.89-6.75-2.39-11.23-4.77-11.23-11.46 0-4.37 3.49-10.3 12.57-10.3 5.76 0 10.01 2.97 10.01 2.97.23.17.64.58.23 1.22-.17.23-.35.52-.47.76-.35.47-.7.64-1.28.29-.17-.12-4.07-2.74-8.55-2.74-7.16 0-9.84 4.42-9.84 7.74 0 4.95 3.78 7.1 9.66 9.02 7.97 2.74 13.04 5.53 13.04 12.28 0 5.82-5.99 10.36-12.69 10.36s-11.58-4.07-12.34-4.77c-.35-.29-.64-.58-.17-1.22Z"/>
      <path d="M190.01 163c5.94 0 10.36 1.98 14.14 5.41.29.29.35.76.06 1.05l-.93.99c-.35.35-.64.29-.99-.06-3.32-2.97-7.51-4.77-12.28-4.77-10.18 0-18.16 8.32-18.16 18.39s7.97 18.27 18.16 18.27c5 0 8.79-1.98 12.28-4.89.35-.29.7-.29.93-.12l.99.99c.29.23.29.7 0 .99-3.96 3.84-9.02 5.65-14.2 5.65-11.64 0-21.07-9.2-21.07-20.89s9.43-21.01 21.07-21.01Z"/>
      <path d="M214.8 203.62l17.92-40.5c.12-.23.41-.41.7-.41h.17c.29 0 .58.06.76.41l17.75 40.5c.12.35.12.7-.52.7h-1.51c-.41 0-.7-.29-.81-.52l-4.71-10.71h-22.23l-4.66 10.71c-.12.23-.41.52-.82.52h-1.63c-.41 0-.58-.23-.41-.7Zm28.75-12.8l-9.95-23.45h-.12l-10.13 23.45h20.19Z"/>
      <path d="M265.61 164.34c0-.41.35-.76.7-.76h12.34c11.29 0 20.49 9.14 20.49 20.31s-9.2 20.43-20.49 20.43h-12.34c-.35 0-.7-.35-.7-.76v-39.22Zm12.57 37.48c10.18 0 18.04-7.74 18.04-17.92s-7.86-17.81-18.04-17.81h-9.83v35.73h9.83Z"/>
      <path d="M315.55 164.34c0-.41.35-.76.76-.76h23.34c.41 0 .76.35.76.76v.99c0 .41-.35.76-.76.76h-21.3v16.06h18.45c.41 0 .76.35.76.76v.99c0 .41-.35.76-.76.76h-18.45v17.23h21.3c.41 0 .76.35.76.76v.93c0 .41-.35.76-.76.76h-23.34c-.41 0-.76-.35-.76-.76v-39.22Z"/>
    </g>
    <g>
      <path class="cls-1" d="M42.08,223.35c-.1-.2-.02-.32.2-.32h.66c.15,0,.25.1.27.17l6.63,15.25h.05l6.7-15.25c.02-.07.12-.17.27-.17h.64c.22,0,.32.15.22.34l-7.54,16.87c-.05.12-.15.22-.29.22h-.12c-.15,0-.25-.15-.27-.22l-7.41-16.89Z"/>
      <path class="cls-1" d="M64.45,223.35c0-.17.15-.32.32-.32h9.85c.17,0,.32.15.32.32v.42c0,.17-.15.32-.32.32h-8.99v6.78h7.78c.17,0,.32.15.32.32v.42c0,.17-.15.32-.32.32h-7.78v7.27h8.99c.17,0,.32.15.32.32v.39c0,.17-.15.32-.32.32h-9.85c-.17,0-.32-.15-.32-.32v-16.55Z"/>
      <path class="cls-1" d="M83.06,223.11c0-.2.17-.32.37-.32h.42l11.78,15.34h.02v-14.78c0-.17.15-.32.32-.32h.49c.17,0,.32.15.32.32v16.79c0,.22-.2.32-.39.32h-.32s-.22-.07-11.88-15.49h-.02v14.93c0,.17-.15.32-.32.32h-.47c-.17,0-.32-.15-.32-.32v-16.79Z"/>
      <path class="cls-1" d="M108.53,224.09h-4.69c-.25,0-.32-.15-.32-.37v-.37c0-.2.15-.32.32-.32h10.56c.2,0,.32.15.32.32v.42c0,.17-.12.32-.32.32h-4.71v15.81c0,.17-.15.32-.39.32h-.44c-.17,0-.32-.15-.32-.32v-15.81Z"/>
      <path class="cls-1" d="M121.25,223.35c0-.17.15-.32.32-.32h.52c.17,0,.32.15.32.32v10.48c0,3.17,1.99,5.5,5.25,5.5s5.3-2.31,5.3-5.47v-10.51c0-.2.1-.32.34-.32h.49c.17,0,.32.15.32.32v10.61c0,3.76-2.55,6.51-6.46,6.51s-6.41-2.75-6.41-6.51v-10.61Z"/>
      <path class="cls-1" d="M143.06,223.35c0-.17.12-.32.32-.32h6.09c3,0,5.48,2.26,5.48,5.25,0,2.48-1.72,4.47-4.05,5.13l3.58,6.36c.12.2.07.44-.17.44h-.76c-.17,0-.27-.07-.34-.22l-3.56-6.43c-.32.02-.59.02-.91.02h-4.52v6.31c0,.17-.15.32-.39.32h-.44c-.17,0-.32-.15-.32-.32v-16.55ZM149.42,232.56c2.36,0,4.35-1.84,4.35-4.27s-1.99-4.12-4.37-4.12h-5.16v8.4h5.18Z"/>
      <path class="cls-1" d="M162.95,223.35c0-.17.15-.32.32-.32h9.85c.17,0,.32.15.32.32v.42c0,.17-.15.32-.32.32h-8.99v6.78h7.78c.17,0,.32.15.32.32v.42c0,.17-.15.32-.32.32h-7.78v7.27h8.99c.17,0,.32.15.32.32v.39c0,.17-.15.32-.32.32h-9.85c-.17,0-.32-.15-.32-.32v-16.55Z"/>
      <path class="cls-1" d="M190.82,223.35c0-.17.15-.32.32-.32h5.28c3.04,0,5.55,2.48,5.55,5.5s-2.5,5.57-5.52,5.57h-4.47v5.79c0,.17-.15.32-.39.32h-.44c-.17,0-.32-.15-.32-.32v-16.55ZM196.37,232.98c2.41,0,4.44-1.99,4.44-4.47s-2.04-4.32-4.47-4.32h-4.37v8.79h4.39Z"/>
      <path class="cls-1" d="M206.22,239.93l7.56-17.09c.05-.1.17-.17.29-.17h.07c.12,0,.25.03.32.17l7.49,17.09c.05.15.05.29-.22.29h-.64c-.17,0-.29-.12-.34-.22l-1.99-4.52h-9.38l-1.96,4.52c-.05.1-.17.22-.34.22h-.69c-.17,0-.25-.1-.17-.29ZM218.35,234.53l-4.2-9.89h-.05l-4.27,9.89h8.52Z"/>
      <path class="cls-1" d="M228.64,223.35c0-.17.12-.32.32-.32h6.09c3,0,5.47,2.26,5.47,5.25,0,2.48-1.72,4.47-4.05,5.13l3.58,6.36c.12.2.07.44-.17.44h-.76c-.17,0-.27-.07-.34-.22l-3.56-6.43c-.32.02-.59.02-.91.02h-4.52v6.31c0-.17-.15.32-.39.32h-.44c-.17,0-.32-.15-.32-.32v-16.55ZM235,232.56c2.36,0,4.35-1.84,4.35-4.27s-1.99-4.12-4.37-4.12h-5.16v8.4h5.18Z"/>
      <path class="cls-1" d="M251.06,224.09h-4.69c-.25,0-.32-.15-.32-.37v-.37c0-.2.15-.32.32-.32h10.56c.2,0,.32.15.32.32v.42c0,.17-.12.32-.32.32h-4.71v15.81c0,.17-.15.32-.39.32h-.44c-.17,0-.32-.15-.32-.32v-15.81Z"/>
      <path class="cls-1" d="M263.98,223.11c0-.2.17-.32.37-.32h.42l11.79,15.34h.02v-14.78c0-.17.15-.32.32-.32h.49c.17,0,.32.15.32.32v16.79c0,.22-.2.32-.39.32h-.32s-.22-.07-11.88-15.49h-.02v14.93c0,.17-.15.32-.32.32h-.47c-.17,0-.32-.15-.32-.32v-16.79Z"/>
      <path class="cls-1" d="M286.84,223.35c0-.17.15-.32.32-.32h9.84c.17,0,.32.15.32.32v.42c0,.17-.15.32-.32.32h-8.99v6.78h7.78c.17,0,.32.15.32.32v.42c0,.17-.15.32-.32.32h-7.78v7.27h8.99c.17,0,.32.15.32.32v.39c0,.17-.15.32-.32.32h-9.84c-.17,0-.32-.15-.32-.32v-16.55Z"/>
      <path class="cls-1" d="M305.46,223.35c0-.17.12-.32.32-.32h6.09c3,0,5.47,2.26,5.47,5.25,0,2.48-1.72,4.47-4.05,5.13l3.58,6.36c.12.2.07.44-.17.44h-.76c-.17,0-.27-.07-.34-.22l-3.56-6.43c-.32.02-.59.02-.91.02h-4.52v6.31c0,.17-.15.32-.39.32h-.44c-.17,0-.32-.15-.32-.32v-16.55ZM311.82,232.56c2.36,0,4.35-1.84,4.35-4.27s-1.99-4.12-4.37-4.12h-5.16v8.4h5.18Z"/>
      <path class="cls-1" d="M324.32,237.94l.22-.29c.17-.2.34-.27.54-.1.25.22,2.06,1.89,4.54,1.89,2.23,0,4.12-1.5,4.12-3.29,0-2.19-1.79-3.17-4.76-4.17-2.85-1.01-4.74-2.01-4.74-4.84,0-1.84,1.47-4.35,5.3-4.35,2.43,0,4.22,1.25,4.22,1.25.1.07.27.25.1.52-.07.1-.15.22-.2.32-.15.2-.29.27-.54.12-.07-.05-1.72-1.15-3.61-1.15-3.02,0-4.15,1.87-4.15,3.27,0,2.09,1.6,3,4.08,3.81,3.36,1.15,5.5,2.33,5.5,5.18,0,2.46-2.53,4.37-5.35,4.37s-4.89-1.72-5.21-2.01c-.15-.12-.27-.25-.07-.52Z"/>
    </g>
    <g>
      <path fill="#c5dbf1" d="M333.04 137.17c0 1.64-48.73 12.03-268.85 5.46-37.89-1.13-12.25-6.39-5.51-7.6 14.64-2.62 11.42-2.1 24.43-14.4 20.82-19.68 23.31-23.27 23.31-23.27s10.51-17.1 16.94-8.84 7.85 6.84 12.42 2.85c4.56-3.99 12.6-15.45 16.46-19.06 2.02-1.89 10.65-3.79 13.72-10.66 6.11-13.66 7.95-21.23 8.91-21.13s1.44-.75 4.23 10.25c.35 1.39 9.01 12.28 12.37 9.48 3.07-2.56 7.83 11.76 11.37 16.93 1.92 2.8 1.47-3.1 3.38-1.36 4.83 4.41 18.75 24.89 31.21 33.42 12.42 8.5 11.29 5.25 17.47-.84 12.05-11.88 11.21-16.75 16.63-11.05 2.76 2.9 18.56 20.24 33.49 29.61s28.03 8.37 28.03 10.19Z"/>
      <path fill="#231f20" d="M331.7 139.54h0c-3.9.03-5.62-.14-9.48-.55-11-1.17-15.34-4.2-23.99-10.23l-2.23-1.55c-6.06-4.19-12.2-9.28-19.33-16.01l-.61-.57c-2.56-2.42-5.21-4.92-8-7.2-1.68-1.38-3.49-1.39-5.23-.04-1.61 1.25-3.26 2.71-5.04 4.47-1.04 1.02-2.07 2.05-3.1 3.08-2.62 2.62-5.34 5.33-8.1 7.91-.03-.02-.06-.05-.09-.08-.23-.21-.51-.47-.91-.64-6.79-2.9-13.1-7.17-18.75-12.69-6.11-5.97-11.55-12.73-16.17-18.59-.44-.55-.89-1.1-1.35-1.64-1.38-1.65-2.68-3.21-3.56-5.07 0 0-.01-.02-.02-.02-.03-.05-.07-.1-.11-.15-.05-.06-.09-.12-.14-.17 0 0 0-.01-.02-.02-.03-.03-.07-.03-.11-.06-.07-.04-.14-.08-.21-.11-.06-.02-.11-.02-.17-.03-.07 0-.13-.02-.2-.02-.07 0-.14.03-.2.05-.05.01-.1.01-.14.04 0 0-.02.01-.02.02-.06.03-.1.08-.15.12-.05.04-.11.08-.16.13 0 0-.02.01-.02.02-.1.13-.25.35-.4.58-.13.21-.28.43-.42.62-.26.35-.53.56-.72.57-.27-.01-.56-.21-.92-.61-.52-.58-1.06-1.2-1.38-1.81-1.1-2.13-2.17-4.28-3.24-6.43-.47-.95-.94-1.9-1.42-2.85-.19-.38-.37-.78-.56-1.17-.8-1.71-1.7-3.66-3.55-5.19-.22-.18-.5-.26-.78-.22-.28.04-.53.2-.69.43-.62.92-1.03.87-1.21.85-.49-.06-1.11-.48-1.71-.88l-.33-.22c-1.64-1.08-3.04-2.45-4.52-3.91l-.11-.11c-.55-.54-1.02-1.16-1.53-1.83-.84-1.1-1.71-2.24-2.99-3.07-.11-.07-.23-.12-.36-.14-.41-2.19-.7-3.6-.85-4.08-.21-.67-.39-1.51-.58-2.4-.35-1.65-.72-3.36-1.42-4.66-.02-.04-.05-.06-.08-.09-.02-.03-.03-.07-.06-.11-.02-.02-.04-.03-.06-.05-.05-.05-.1-.08-.16-.12-.05-.03-.11-.06-.17-.09-.06-.02-.12-.03-.18-.04-.06-.01-.12-.02-.19-.02-.06 0-.12.01-.18.03-.07.01-.13.03-.2.06-.02.01-.05.01-.07.02-.04.02-.06.05-.09.08-.03.02-.07.03-.1.06-1.47 1.35-2.08 3.53-2.48 4.97-1.27 4.52-2.57 9.2-4.84 13.54-1.85 3.55-4.54 6.46-8.46 9.18-.19.13-.39.28-.58.43-.33.25-.65.49-.95.65-6.72 3.64-10.74 9.7-14.62 15.55-.72 1.09-1.45 2.18-2.19 3.25-2.54 3.68-4.88 7.31-7.61 11.55-2.46-2.65-5.01-5.36-7.81-7.77-2.74-2.36-5.9-4.01-10.43-.22-1.99 1.67-3.58 3.74-4.92 5.54-2.96 4.01-6.29 8.17-10.57 11.48-6.85 5.3-12.43 11.72-16.98 17.31-2.98 3.65-6.42 6.22-10.54 7.85-4.29 1.7-9 2.73-14.01 3.08-1.12.08-3.74.05-6.04.02-1.11-.01-2.18-.02-3.06-.02h0c-.55 0-1 .45-1 1 0 .55.45 1 1 1 .87 0 1.93.01 3.03.02 1.24.01 2.49.03 3.59.03s2.01-.01 2.61-.05c5.22-.36 10.13-1.44 14.61-3.21 4.44-1.76 8.16-4.52 11.35-8.44 4.48-5.49 9.96-11.81 16.65-16.99 4.48-3.47 8.05-7.95 10.95-11.87 1.32-1.79 2.77-3.67 4.6-5.2 3.26-2.73 5.2-2.07 7.84.2 2.95 2.54 5.65 5.45 8.26 8.27 1.18 1.27 2.36 2.55 3.57 3.8 1.3 1.34 2.97 3.1 4.63 4.94-5 8.25-12.19 14.65-21.42 19.01-5.54 2.61-11.14 4-16.65 4.12-.55.01-.99.47-.98 1.02.01.55.45.96 1.02.98 5.8-.13 11.67-1.58 17.46-4.31 9.31-4.4 16.65-10.79 21.84-19.03 1.56 1.29 3.18 2.71 4.63 3.99 1.22 1.08 2.28 2.01 3.07 2.66 8.34 6.78 18.28 11.88 29.53 15.14 8.38 2.43 11.43 3.24 20.04 4.06.97.09 2.21.23 3.57.39 3.67.42 8.17.93 11.11.93.24 0 .48 0 .7-.01.5-.02 1.09-.09 1.76-.18.94-.12 2-.26 3.05-.26.15 0 .29-.04.42-.1.03-.02.06-.04.09-.06.09-.06.18-.12.25-.21.01-.02.03-.02.05-.04.02-.03.03-.07.04-.1.04-.06.06-.12.09-.19.02-.07.03-.13.04-.2 0-.04.02-.07.02-.11 0-.03-.01-.05-.02-.07 0-.07-.02-.13-.04-.2-.02-.06-.04-.12-.06-.18-.03-.05-.06-.1-.1-.15-.04-.06-.09-.11-.14-.16-.02-.02-.03-.04-.05-.05-1.37-1-3.63-2.7-3.97-2.99-3.18-2.77-6.1-5.16-8.92-7.48-3.72-3.05-7.23-5.93-11.23-9.55-6.14-5.55-12.52-11.68-17.63-18.83-4.51-6.3-7.81-13.75-10.1-22.75-.34-1.33-1.15-2.86-1.98-3.73-.26-.27-.64-.37-1-.27-.66.19-.93.33-1.36.64-5.55 3.97-8.97 9.33-10.15 15.93-.99 5.55-3.17 10.15-6.64 14.06l-.19.21c-1.77 1.99-3.57 4.05-5.03 6.31-1.56-1.72-3.1-3.33-4.31-4.59-.93-.96-1.83-1.94-2.74-2.92 2.83-4.42 5.24-8.14 7.84-11.93.75-1.08 1.48-2.18 2.21-3.28 3.92-5.91 7.63-11.49 13.91-14.9.44-.24.83-.53 1.2-.81.17-.13.34-.26.52-.38 4.2-2.91 7.09-6.05 9.1-9.89 2.36-4.53 3.7-9.3 4.99-13.93.22-.78.51-1.81.96-2.71.23.79.43 1.67.61 2.54.2.94.39 1.82.63 2.59.2.63.86 4.19 1.44 7.32.59 3.2 1.2 6.51 1.6 8.26.93 4.16 2.39 8.45 4.58 13.5 2.6 5.99 6.87 10.88 12.69 14.56 2.93 1.85 5.83 4.08 8.62 6.62 1.88 1.7 3.25 3.76 4.69 5.94l.29.44c.19.29.51.45.83.45.19 0 .38-.05.55-.17.46-.31.58-.93.28-1.39l-.29-.44c-1.45-2.18-2.96-4.44-5.01-6.31-2.88-2.62-5.88-4.92-8.9-6.83-5.55-3.51-9.45-7.98-11.92-13.67-2.14-4.93-3.56-9.1-4.46-13.14-.38-1.72-.99-5.01-1.58-8.19-.04-.19-.07-.36-.1-.55.42.46.81.97 1.21 1.49.52.69 1.07 1.4 1.72 2.04l.11.11c1.48 1.46 3.01 2.97 4.82 4.16l.31.21c.76.51 1.61 1.08 2.57 1.2.88.11 1.68-.17 2.38-.82 1.04 1.11 1.65 2.43 2.29 3.8.19.41.38.82.58 1.22.47.95.94 1.89 1.41 2.84 1.07 2.16 2.14 4.32 3.25 6.46.43.83 1.06 1.56 1.67 2.24.76.84 1.56 1.27 2.39 1.27.04 0 .07 0 .11 0 .79-.04 1.5-.46 2.13-1.25.89 1.46 1.98 2.76 3.03 4.03.44.53.89 1.06 1.31 1.6 4.66 5.91 10.15 12.72 16.34 18.78 5.82 5.69 12.34 10.1 19.36 13.1.09.04.21.15.34.27.02.02.05.04.07.06-.91 1.02-1.8 2.04-2.69 3.07-2.83 3.27-5.75 6.64-9.1 9.48-.71.6-3 2.57-3 2.57-.31.26-.42.68-.3 1.07s.47.66.87.69c.43.03.83.08 1.22.12.6.06 1.17.12 1.79.15 7.87.34 14.07-.74 19.52-3.42 5.74-2.82 11.85-3.32 19.83-1.59.86.19 1.76.48 2.64.77 1.4.46 2.85.93 4.28 1.02 2.71.17 4.38 1.04 6.14 1.97 1.09.57 2.21 1.16 3.56 1.55.82.24 1.73.3 2.49.3.53 0 .99-.03 1.29-.05h.21c.55-.04.98-.5.95-1.06-.03-.55-.49-1-1.04-.95h-.25c-.61.06-2.03.15-3.08-.16-1.16-.34-2.15-.86-3.2-1.41-.16-.09-.33-.17-.5-.26-.03-.02-.05-.04-.08-.06-1.3-.57-3.09-1.87-4.27-2.73-.53-.38-.96-.69-1.21-.85-.97-.59-1.97-1.12-2.95-1.63-.57-.3-1.14-.59-1.7-.91-6.29-3.48-12.25-5.5-18.22-6.19-3.65-.42-6.79-1.19-9.56-2.33 2.47-2.34 4.91-4.74 7.26-7.09 1.03-1.03 2.06-2.05 3.09-3.07 1.72-1.7 3.31-3.11 4.86-4.31.99-.77 1.78-.77 2.73 0 2.73 2.24 5.36 4.72 7.89 7.11l.61.57c7.21 6.8 13.42 11.94 19.57 16.2l2.22 1.54c8.65 6.03 13.42 9.35 24.92 10.58 3.6.38 5.47.57 8.96.57.24 0 .49 0 .75 0 .55 0 1-.45.99-1.01 0-.55-.45-.99-1-.99Zm-185.62-33.23l.19-.21c3.73-4.2 6.05-9.11 7.11-15.03 1.1-6.16 4.16-10.95 9.35-14.66.06-.04.11-.08.16-.11.42.61.87 1.48 1.08 2.33 2.34 9.25 5.75 16.92 10.41 23.43 5.22 7.3 11.7 13.51 17.92 19.14 4.04 3.66 7.57 6.55 11.3 9.62 2.81 2.3 5.71 4.69 8.87 7.44.24.21 1.06.84 1.95 1.5-.18.02-.38.04-.56.07-.63.08-1.17.15-1.57.17-2.72.09-7.6-.46-11.51-.91-1.38-.16-2.63-.3-3.61-.39-8.42-.8-11.43-1.6-19.67-3.99-11.15-3.24-20.58-8.07-28.83-14.78-.77-.62-1.81-1.54-3.01-2.61-1.53-1.35-3.24-2.86-4.9-4.21 1.44-2.41 3.4-4.64 5.32-6.79Zm129.58 23.41c.58.32 1.16.62 1.75.93.93.48 1.88.98 2.78 1.53-1.12-.1-2.31-.49-3.58-.9-.92-.3-1.88-.61-2.84-.82-8.33-1.8-15.05-1.24-21.13 1.75-5.13 2.52-11.03 3.55-18.55 3.22-.2 0-.4-.02-.59-.04.49-.42.95-.82 1.21-1.03 3.46-2.93 6.44-6.37 9.32-9.69 1.08-1.25 2.16-2.5 3.27-3.72 0 0 0 0 0 0 3.14 1.41 6.69 2.33 10.87 2.81 5.71.66 11.42 2.6 17.48 5.95Z"/>
      <path fill="#507cbd" d="M190 117.73s-16.36-15.71-18.89-22.88c-3.65-10.33-11.32-17.8-6.85-28.2 4.28-9.96 9.25-21.8 9.25-21.8s3.39 13.05 9.5 34.93c4.08 14.6 30.73 23.11 26.22 28.94-8.65 11.21-19.24 9.02-19.24 9.02ZM139.52 112.73s10.52-9.04 14.71-27.76c1.22-5.45 7.55-10.5 7.55-10.5s5.16 3.93-5.06 15.14c-6.22 6.82 12.87 20.63 5.11 32.46-7.77 11.84-22.31-9.35-22.31-9.35ZM74.9 137.03s44.5-49.84 41.5-42.73c-6.55 15.51 2.77 18.55-5 30.39s-36.5 12.34-36.5 12.34ZM231.07 136.17l33.47-32.95s5.16-1.54-2.04 7.33c-9.82 12.09 4.55 3.61.89 13.14-.32.83 19.81 7.81 19.18 8.95-.87 1.58-16.74-5.38-23.72-1.94-11.8 5.82-27.77 5.47-27.77 5.47Z"/>
    </g>
  </g>
</svg>